<?xml version="1.0" standalone="no"?>
<!DOCTYPE svg PUBLIC "-//W3C//DTD SVG 20010904//EN"
 "http://www.w3.org/TR/2001/REC-SVG-20010904/DTD/svg10.dtd">
<svg version="1.0" xmlns="http://www.w3.org/2000/svg"
 width="1254.000000pt" height="1254.000000pt" viewBox="0 0 1254.000000 1254.000000"
 preserveAspectRatio="xMidYMid meet">

<g transform="translate(0.000000,1254.000000) scale(0.100000,-0.100000)"
fill="#000000" stroke="none">
<path d="M5945 10123 c-376 -30 -680 -90 -1000 -198 -450 -152 -902 -405
-1242 -697 -51 -44 -93 -80 -93 -81 0 -1 38 0 84 1 113 5 312 -14 417 -39 l86
-21 112 85 c313 240 746 460 1136 578 473 142 965 179 1449 109 714 -104 1330
-425 1821 -951 299 -320 571 -780 706 -1194 38 -117 57 -150 29 -49 -53 194
-158 461 -261 666 -176 352 -380 632 -652 895 -226 217 -466 387 -746 528
-434 217 -855 330 -1361 365 -134 9 -391 11 -485 3z"/>
<path d="M4550 7398 c-58 -16 -179 -49 -270 -74 -257 -70 -310 -86 -310 -94 0
-11 87 -256 228 -640 154 -420 527 -1446 571 -1575 18 -50 35 -96 40 -103 6
-9 95 -12 408 -10 l401 3 -45 125 c-75 209 -383 1043 -528 1430 -140 374 -322
865 -346 933 -8 22 -19 37 -29 36 -8 -1 -62 -14 -120 -31z"/>
<path d="M10090 7193 c-140 -122 -363 -247 -545 -306 -102 -34 -265 -71 -377
-88 l-88 -12 0 -133 0 -133 53 -26 c28 -15 67 -38 85 -51 l32 -25 0 108 0 109
114 22 c276 52 556 178 767 343 l26 21 109 -75 c219 -150 458 -247 723 -294
l94 -17 -7 -144 c-12 -265 -53 -502 -121 -710 -128 -388 -375 -684 -735 -882
l-72 -40 -87 42 c-255 125 -476 328 -618 569 l-31 53 -10 -39 c-5 -22 -18 -77
-29 -122 l-19 -81 40 -55 c171 -227 416 -416 684 -526 l73 -30 92 45 c669 335
995 967 1008 1954 l2 115 -54 8 c-420 61 -721 188 -984 414 -27 24 -52 43 -55
43 -3 0 -34 -26 -70 -57z"/>
<path d="M3737 7175 c-65 -20 -185 -72 -305 -131 -108 -53 -251 -121 -317
-150 -69 -31 -127 -63 -136 -76 -17 -23 -448 -777 -734 -1283 -87 -154 -230
-405 -317 -558 -87 -153 -158 -281 -158 -283 0 -2 201 -4 446 -4 l447 0 176
173 c397 388 791 684 1328 995 157 91 196 118 177 120 -42 6 -572 -17 -684
-28 -58 -6 -157 -17 -220 -24 -63 -8 -117 -12 -119 -10 -2 1 103 193 232 426
129 233 267 482 306 555 l72 132 -27 91 c-20 65 -32 90 -43 89 -9 0 -64 -16
-124 -34z"/>
<path d="M8320 6513 c-148 -16 -355 -72 -485 -132 l-80 -38 -17 -90 c-26 -129
-26 -126 25 -103 69 30 244 78 373 101 159 28 416 31 518 6 97 -25 148 -49
200 -97 62 -58 80 -107 74 -215 -2 -46 -7 -88 -11 -91 -3 -3 -54 3 -114 15
-275 54 -496 54 -748 1 -339 -70 -562 -251 -606 -493 -42 -226 110 -409 396
-477 114 -28 360 -38 490 -21 101 13 268 55 333 83 24 10 46 18 49 18 2 0 2
-18 -2 -40 l-7 -40 225 0 224 0 6 33 c3 17 24 113 47 212 139 607 151 665 157
755 20 327 -221 558 -632 609 -83 10 -334 13 -415 4z m258 -853 c89 -8 270
-38 280 -46 4 -3 -42 -217 -63 -289 -33 -116 -188 -200 -416 -226 -217 -24
-388 21 -451 120 -27 42 -29 52 -26 116 7 147 101 248 279 299 117 34 227 41
397 26z"/>
<path d="M5731 6463 c-6 -26 -28 -124 -50 -218 -22 -93 -67 -294 -101 -446
l-63 -276 114 -312 113 -311 50 0 51 0 63 278 c175 768 207 897 235 934 58 75
160 121 315 140 227 29 416 -52 466 -200 34 -98 24 -167 -94 -667 -69 -294
-110 -471 -110 -479 0 -3 105 -6 234 -6 l234 0 22 98 c12 53 55 239 95 412 89
381 99 438 92 560 -6 114 -24 173 -84 263 -75 112 -192 192 -358 244 l-90 28
-561 3 -562 3 -11 -48z"/>
<path d="M4875 4739 c-647 -7 -1436 -26 -1444 -35 -2 -2 -2 -7 2 -10 15 -16
3076 -27 4370 -16 731 6 1331 13 1335 16 3 3 3 8 0 11 -8 9 -660 25 -1413 35
-809 11 -1876 11 -2850 -1z"/>
<path d="M7520 4455 c-21 -25 -1 -31 23 -7 17 18 18 22 5 22 -8 0 -21 -7 -28
-15z"/>
<path d="M9980 4455 c-21 -25 -1 -31 23 -7 17 18 18 22 5 22 -8 0 -21 -7 -28
-15z"/>
<path d="M3543 4410 c-23 -9 -40 -51 -28 -70 3 -5 24 -19 46 -31 49 -24 46
-44 -7 -45 -27 0 -39 -5 -39 -15 0 -10 13 -14 50 -14 42 0 51 3 62 24 16 32 2
57 -43 78 -44 22 -42 49 4 47 37 -2 44 20 10 30 -28 7 -27 7 -55 -4z"/>
<path d="M3724 4411 c-2 -2 -4 -44 -4 -93 l0 -88 60 0 c47 0 60 3 60 15 0 11
-11 15 -40 15 -36 0 -40 3 -40 24 0 20 6 25 32 28 46 4 49 28 4 28 -32 0 -36
3 -36 25 0 23 4 25 40 25 61 0 48 18 -16 22 -31 1 -58 1 -60 -1z"/>
<path d="M3973 4410 c-36 -15 -56 -55 -50 -101 7 -55 31 -79 78 -79 60 0 69 7
69 56 0 42 -1 44 -30 44 -20 0 -30 -5 -30 -15 0 -8 7 -15 15 -15 8 0 15 -9 15
-20 0 -15 -7 -20 -28 -20 -38 0 -52 17 -52 61 0 57 35 83 80 59 13 -7 19 -6
24 6 4 10 -3 18 -20 24 -30 12 -42 12 -71 0z"/>
<path d="M4428 4412 l-28 -3 0 -90 c0 -72 3 -89 15 -89 10 0 15 11 15 35 0 24
5 35 14 35 8 0 24 -16 36 -35 12 -20 30 -35 40 -35 18 0 18 2 -2 36 -20 34
-20 38 -5 63 9 15 13 37 10 49 -3 12 -6 22 -7 22 -1 0 -15 3 -31 8 -17 4 -42
6 -57 4z m50 -31 c21 -13 10 -46 -16 -49 -24 -4 -38 18 -28 43 6 17 24 19 44
6z"/>
<path d="M4788 4413 l-28 -4 0 -90 0 -89 44 0 c58 0 74 7 91 41 43 82 -13 155
-107 142z m60 -39 c16 -11 22 -25 22 -53 0 -44 -14 -61 -52 -61 -27 0 -28 1
-28 58 0 77 12 88 58 56z"/>
<path d="M6020 4323 c0 -76 3 -93 15 -93 10 0 15 11 15 35 0 25 5 35 15 35 9
0 23 -16 32 -35 12 -25 23 -35 40 -35 l23 0 -24 39 c-22 34 -23 41 -11 51 18
15 20 64 3 78 -7 5 -34 11 -60 13 l-48 4 0 -92z m80 52 c16 -19 -3 -45 -31
-45 -14 0 -19 7 -19 30 0 23 5 30 19 30 10 0 24 -7 31 -15z"/>
<path d="M6430 4408 c0 -6 12 -49 27 -95 23 -70 31 -83 47 -81 15 2 26 24 48
88 33 99 34 104 11 91 -10 -5 -27 -37 -38 -72 l-21 -62 -19 62 c-10 35 -26 66
-37 72 -13 7 -18 6 -18 -3z"/>
<path d="M6665 4412 c-3 -3 -5 -45 -5 -94 l0 -88 60 0 c46 0 60 3 60 14 0 10
-14 16 -42 18 -36 2 -44 7 -46 26 -3 19 1 22 32 22 47 0 50 27 4 32 -25 2 -33
8 -33 23 0 16 8 21 43 23 24 2 42 8 40 13 -4 11 -103 20 -113 11z"/>
<path d="M7140 4407 c-35 -18 -52 -55 -46 -102 6 -53 36 -77 90 -73 29 2 42 8
44 20 3 14 -3 16 -34 11 -44 -7 -64 12 -64 62 0 44 29 69 69 60 24 -5 31 -3
31 8 0 8 -10 17 -22 21 -32 8 -40 7 -68 -7z"/>
<path d="M7484 4406 c-36 -16 -44 -32 -44 -90 0 -54 30 -86 81 -86 49 0 79 33
79 87 0 55 -7 71 -41 88 -34 18 -36 18 -75 1z m70 -38 c35 -49 11 -112 -39
-106 -25 2 -31 9 -39 40 -17 68 42 117 78 66z"/>
<path d="M7798 4357 l-3 -61 -35 57 c-21 35 -41 57 -52 57 -16 0 -18 -10 -18
-90 0 -73 3 -90 15 -90 12 0 15 14 15 63 l0 62 40 -62 c57 -90 70 -85 70 26 0
68 -3 90 -15 94 -11 5 -15 -7 -17 -56z"/>
<path d="M8240 4324 c0 -83 2 -94 18 -94 13 0 17 8 17 33 0 29 3 32 32 35 34
3 63 33 63 63 0 26 -32 46 -82 52 l-48 5 0 -94z m78 57 c21 -13 10 -46 -16
-49 -19 -3 -22 1 -22 27 0 31 13 39 38 22z"/>
<path d="M8713 4410 c-47 -19 -59 -107 -22 -154 27 -35 86 -36 117 -3 28 30
30 105 5 136 -21 24 -68 35 -100 21z m64 -32 c17 -22 22 -58 11 -89 -9 -26
-15 -30 -42 -27 -27 3 -32 8 -40 40 -7 29 -6 42 8 62 18 28 47 34 63 14z"/>
<path d="M9173 4412 l-53 -3 0 -90 0 -89 60 0 c47 0 60 3 60 15 0 11 -11 15
-40 15 -36 0 -40 3 -40 25 0 21 5 25 30 25 20 0 30 5 30 15 0 10 -10 15 -30
15 -25 0 -30 4 -30 25 0 23 4 25 40 25 22 0 40 4 40 9 0 14 -10 16 -67 13z"/>
<path d="M9373 4410 c-54 -22 -69 -114 -27 -161 23 -26 107 -24 112 3 3 14 -3
16 -32 11 -47 -7 -66 9 -66 58 0 51 23 73 67 64 37 -7 45 8 14 25 -23 12 -38
12 -68 0z"/>
<path d="M9593 4410 c-54 -22 -69 -114 -27 -161 26 -29 114 -24 114 6 0 10
-10 12 -35 8 -46 -7 -65 10 -65 57 0 50 29 78 65 62 17 -8 26 -8 31 -1 14 24
-45 45 -83 29z"/>
<path d="M9953 4413 c-55 -10 -74 -119 -30 -161 31 -30 89 -30 117 0 20 22 28
87 14 123 -6 16 -56 46 -71 44 -4 -1 -18 -4 -30 -6z m61 -45 c33 -47 13 -108
-35 -108 -23 0 -32 6 -40 27 -27 71 36 137 75 81z"/>
<path d="M10157 4413 c-4 -3 -7 -46 -7 -95 0 -70 3 -88 15 -88 10 0 15 16 17
62 l3 62 38 -62 c26 -42 45 -62 58 -62 17 0 19 8 19 90 0 83 -1 90 -20 90 -18
0 -20 -7 -20 -57 l0 -56 -40 61 c-38 60 -49 69 -63 55z"/>
<path d="M4160 4348 c0 -35 6 -74 13 -87 16 -32 55 -42 95 -25 l32 13 0 81 c0
63 -3 80 -15 80 -11 0 -15 -17 -17 -72 l-3 -73 -30 0 -30 0 -3 73 c-3 64 -5
72 -22 72 -18 0 -20 -7 -20 -62z"/>
<path d="M4620 4320 c0 -83 1 -90 20 -90 19 0 20 7 20 90 0 83 -1 90 -20 90
-19 0 -20 -7 -20 -90z"/>
<path d="M5029 4383 c-21 -52 -49 -136 -49 -145 0 -17 29 -7 35 12 5 15 15 20
42 20 26 0 36 -5 40 -20 3 -12 14 -20 25 -20 14 0 18 5 15 14 -3 8 -18 49 -33
90 -20 59 -31 76 -46 76 -11 0 -23 -11 -29 -27z m41 -37 c0 -8 3 -21 6 -30 4
-12 0 -16 -15 -16 -23 0 -24 3 -15 38 7 24 24 30 24 8z"/>
<path d="M5220 4320 l0 -90 49 0 c65 0 91 22 98 80 4 36 1 51 -17 73 -19 23
-28 27 -76 27 l-54 0 0 -90z m92 53 c21 -19 25 -82 6 -101 -7 -7 -22 -12 -35
-12 -22 0 -23 4 -23 65 0 54 3 65 17 65 9 0 25 -7 35 -17z"/>
<path d="M5800 4320 c0 -83 1 -90 20 -90 16 0 20 7 20 35 0 32 3 35 28 35 50
0 76 46 52 91 -9 15 -22 19 -65 19 l-55 0 0 -90z m85 40 c0 -18 -6 -26 -22
-28 -20 -3 -23 1 -23 28 0 27 3 31 23 28 16 -2 22 -10 22 -28z"/>
<path d="M6240 4320 l0 -90 61 0 c44 0 60 3 57 13 -3 6 -23 13 -46 15 -37 3
-42 6 -42 28 0 21 5 24 35 24 24 0 35 5 35 15 0 10 -11 15 -35 15 -31 0 -35 3
-35 25 0 23 4 25 40 25 22 0 40 5 40 10 0 6 -25 10 -55 10 l-55 0 0 -90z"/>
<path d="M6860 4320 c0 -85 1 -90 21 -90 19 0 21 5 17 55 -1 30 0 55 3 55 4 0
22 -25 40 -55 20 -34 40 -55 51 -55 16 0 18 10 18 90 0 72 -3 90 -15 90 -10 0
-15 -15 -17 -57 l-3 -58 -38 58 c-25 37 -44 57 -57 57 -18 0 -20 -7 -20 -90z"/>
<path d="M7320 4320 c0 -73 3 -90 15 -90 12 0 15 17 15 90 0 73 -3 90 -15 90
-12 0 -15 -17 -15 -90z"/>
<path d="M8450 4320 c0 -83 1 -90 20 -90 16 0 20 7 20 35 0 23 5 35 13 35 8 0
22 -16 33 -35 10 -20 26 -35 36 -35 22 0 22 1 -2 43 -18 30 -19 36 -5 47 18
15 20 61 3 78 -7 7 -36 12 -65 12 l-53 0 0 -90z m90 55 c16 -19 -3 -45 -31
-45 -14 0 -19 7 -19 30 0 23 5 30 19 30 10 0 24 -7 31 -15z"/>
<path d="M8900 4400 c0 -5 11 -10 25 -10 25 0 25 -1 25 -80 0 -73 2 -80 20
-80 18 0 20 7 20 80 0 79 0 80 25 80 14 0 25 5 25 10 0 6 -30 10 -70 10 -40 0
-70 -4 -70 -10z"/>
<path d="M9770 4320 c0 -83 1 -90 20 -90 19 0 20 7 20 90 0 83 -1 90 -20 90
-19 0 -20 -7 -20 -90z"/>
</g>
</svg>
